<mxfile host="app.diagrams.net" modified="2023-10-22T18:38:46.872Z" agent="Mozilla/5.0 (Windows NT 10.0; Win64; x64) AppleWebKit/537.36 (KHTML, like Gecko) Chrome/118.0.0.0 Safari/537.36" etag="hZRB-ZitR26qN-U6IGK9" version="22.0.6" type="github">
  <diagram name="Page-1" id="XUVuE2oSIUS_g4LRfLyj">
    <mxGraphModel dx="1323" dy="720" grid="1" gridSize="10" guides="1" tooltips="1" connect="1" arrows="1" fold="1" page="1" pageScale="1" pageWidth="850" pageHeight="1100" math="0" shadow="0">
      <root>
        <mxCell id="0" />
        <mxCell id="1" parent="0" />
        <mxCell id="zuABSB0GzU-JddChbctC-4" value="" style="image;html=1;image=img/lib/clip_art/computers/Database_128x128.png;hachureGap=4;fontFamily=Architects Daughter;fontSource=https%3A%2F%2Ffonts.googleapis.com%2Fcss%3Ffamily%3DArchitects%2BDaughter;fontSize=20;imageBackground=default;" vertex="1" parent="1">
          <mxGeometry x="30" y="220" width="80" height="80" as="geometry" />
        </mxCell>
        <mxCell id="zuABSB0GzU-JddChbctC-2" value="" style="sketch=0;pointerEvents=1;shadow=1;dashed=0;html=1;strokeColor=#6c8ebf;fillColor=#000033;labelPosition=center;verticalLabelPosition=bottom;verticalAlign=top;outlineConnect=0;align=center;shape=mxgraph.office.sites.excel_services;hachureGap=4;jiggle=2;curveFitting=1;fontFamily=Architects Daughter;fontSource=https%3A%2F%2Ffonts.googleapis.com%2Fcss%3Ffamily%3DArchitects%2BDaughter;fontSize=20;gradientColor=#7ea6e0;" vertex="1" parent="1">
          <mxGeometry x="100" y="210" width="46.95" height="30" as="geometry" />
        </mxCell>
      </root>
    </mxGraphModel>
  </diagram>
</mxfile>
